<svg width="39" height="56" viewBox="0 0 39 56" fill="none" xmlns="http://www.w3.org/2000/svg">
<g clip-path="url(#clip0_196_522)">
<path d="M18.3594 27.9998C18.3594 25.5245 19.3427 23.1505 21.093 21.4002C22.8434 19.6498 25.2174 18.6665 27.6927 18.6665C30.1681 18.6665 32.542 19.6498 34.2924 21.4002C36.0427 23.1505 37.026 25.5245 37.026 27.9998C37.026 30.4752 36.0427 32.8492 34.2924 34.5995C32.542 36.3498 30.1681 37.3332 27.6927 37.3332C25.2174 37.3332 22.8434 36.3498 21.093 34.5995C19.3427 32.8492 18.3594 30.4752 18.3594 27.9998Z" fill="black"/>
<path d="M1.19263 46.6666C1.19263 44.3238 2.12328 42.077 3.77985 40.4205C5.43642 38.7639 7.68322 37.8333 10.026 37.8333H18.8593V46.6666C18.8593 49.0093 17.9286 51.2561 16.2721 52.9127C14.6155 54.5693 12.3687 55.4999 10.026 55.4999C7.68322 55.4999 5.43642 54.5693 3.77985 52.9127C2.12328 51.2561 1.19263 49.0093 1.19263 46.6666Z" fill="black" stroke="black"/>
<path d="M26.6927 18.1667H17.8594V0.5H26.6927C29.0355 0.5 31.2822 1.43065 32.9388 3.08722C34.5954 4.74379 35.526 6.99059 35.526 9.33333C35.526 11.6761 34.5954 13.9229 32.9388 15.5794C31.2822 17.236 29.0355 18.1667 26.6927 18.1667Z" stroke="black"/>
<path d="M0.692627 9.33333C0.692627 11.8087 1.67596 14.1827 3.4263 15.933C5.17664 17.6833 7.55061 18.6667 10.026 18.6667H19.3593V0H10.026C7.55061 0 5.17664 0.98333 3.4263 2.73367C1.67596 4.48401 0.692627 6.85798 0.692627 9.33333Z" fill="black"/>
<path d="M3.77985 34.2462C2.12328 32.5896 1.19263 30.3428 1.19263 28.0001C1.19263 25.6573 2.12328 23.4105 3.77985 21.754C5.43642 20.0974 7.68322 19.1667 10.026 19.1667H18.8593V36.8334H10.026C7.68322 36.8334 5.43642 35.9028 3.77985 34.2462Z" stroke="black"/>
</g>
<defs>
<clipPath id="clip0_196_522">
<rect width="37.3333" height="56" fill="white" transform="translate(0.692627)"/>
</clipPath>
</defs>
</svg>
