<svg width="57" height="56" viewBox="0 0 57 56" fill="none" xmlns="http://www.w3.org/2000/svg">
<path d="M47.161 30.282C45.3666 30.2913 43.8126 30.7218 42.5107 31.3646C42.0346 30.4138 41.5517 29.5773 41.4711 28.9555C41.3767 28.2298 41.267 27.7958 41.3813 26.9313C41.4956 26.0668 41.9961 24.8418 41.9891 24.7496C41.9821 24.6575 41.8772 24.2176 40.8423 24.2095C39.8075 24.2025 38.922 24.409 38.8181 24.682C38.7143 24.955 38.5148 25.5698 38.3912 26.2115C38.2103 27.1495 36.325 30.4966 35.2552 32.2466C34.9052 31.563 34.6077 30.961 34.5458 30.485C34.4513 29.7593 34.3417 29.3253 34.456 28.4608C34.5703 27.5963 35.0708 26.3713 35.0638 26.2791C35.0568 26.187 34.9518 25.7471 33.917 25.739C32.8822 25.732 31.9967 25.9385 31.8928 26.2115C31.789 26.4845 31.677 27.1226 31.4658 27.741C31.2535 28.3581 28.7487 33.9406 28.0918 35.3885C27.757 36.1258 27.4665 36.7185 27.2612 37.1221L27.26 37.1198C27.26 37.1198 27.2472 37.1466 27.2262 37.1921C27.05 37.5363 26.9462 37.7265 26.9462 37.7265C26.9462 37.7265 26.9473 37.7288 26.9497 37.7335C26.8097 37.9866 26.6603 38.2211 26.5868 38.2211C26.5355 38.2211 26.4317 37.548 26.609 36.624C26.9823 34.6873 27.8772 31.668 27.869 31.563C27.8643 31.5093 28.0358 30.9831 27.2845 30.7078C26.5542 30.4406 26.294 30.8863 26.2275 30.8875C26.1633 30.8886 26.1155 31.045 26.1155 31.045C26.1155 31.045 26.9287 27.6488 24.5638 27.6488C23.0845 27.6488 21.0358 29.267 20.0267 30.7335C19.3897 31.0811 18.0258 31.8255 16.5803 32.62C16.025 32.9256 15.458 33.2371 14.9202 33.5335C14.884 33.4926 14.8467 33.453 14.8093 33.4121C11.9405 30.352 6.63915 28.1878 6.86315 24.073C6.94482 22.5773 7.46515 18.6386 17.0517 13.8623C24.9045 9.94931 31.1917 11.0261 32.2778 13.412C33.8295 16.8221 28.9178 23.1583 20.7628 24.073C17.656 24.4218 16.0192 23.2166 15.612 22.7686C15.1838 22.2961 15.1197 22.2751 14.9598 22.3638C14.6997 22.5085 14.8642 22.925 14.9598 23.1735C15.2037 23.807 16.2023 24.9305 17.9057 25.4905C19.4048 25.9828 23.053 26.2523 27.4642 24.5455C32.4062 22.6345 36.2643 17.3168 35.1303 12.873C33.9777 8.35331 26.483 6.86698 19.3897 9.38698C15.1628 10.8873 10.593 13.2416 7.30649 16.3146C3.39932 19.9686 2.77632 23.1501 3.03299 24.479C3.94532 29.2016 10.4542 32.277 13.0605 34.5555C12.9322 34.6266 12.8108 34.6931 12.7012 34.7538C11.3945 35.4001 6.43265 37.9971 5.19132 40.74C3.78315 43.8515 5.41532 46.0845 6.49565 46.3855C9.84282 47.3165 13.2775 45.6411 15.1243 42.8878C16.97 40.1356 16.7448 36.5505 15.8978 34.9148C15.8873 34.895 15.8757 34.8751 15.8652 34.8541C16.2023 34.6546 16.5465 34.4516 16.8872 34.251C17.5522 33.8601 18.2055 33.4961 18.7713 33.1881C18.454 34.0561 18.2218 35.098 18.1017 36.6018C17.9593 38.3681 18.6838 40.6513 19.6312 41.5496C20.0488 41.9451 20.5505 41.9545 20.8678 41.9545C21.9703 41.9545 22.4732 41.0375 23.0273 39.9525C23.7063 38.6225 24.3095 37.0731 24.3095 37.0731C24.3095 37.0731 23.5535 41.2568 25.6138 41.2568C26.3652 41.2568 27.12 40.2826 27.4572 39.7868C27.4583 39.7926 27.4583 39.795 27.4583 39.795C27.4583 39.795 27.4782 39.7623 27.5167 39.6981C27.5948 39.5791 27.6392 39.5033 27.6392 39.5033C27.6392 39.5033 27.6403 39.4951 27.6427 39.4811C27.9448 38.9573 28.6145 37.7626 29.6178 35.7921C30.9152 33.2465 32.1588 30.0568 32.1588 30.0568C32.1588 30.0568 32.2743 30.8361 32.6535 32.1265C32.8763 32.8848 33.35 33.7236 33.7245 34.5286C33.4235 34.9463 33.2392 35.1855 33.2392 35.1855C33.2392 35.1855 33.2403 35.1901 33.2438 35.1983C33.0035 35.518 32.734 35.8621 32.4517 36.1981C31.4273 37.4173 30.2082 38.8103 30.0448 39.2116C29.8523 39.6853 29.8978 40.033 30.27 40.3141C30.5418 40.5183 31.0248 40.551 31.53 40.5171C32.4505 40.4553 33.0968 40.2266 33.4165 40.0878C33.9147 39.9116 34.4945 39.6351 35.0382 39.235C36.0427 38.4965 36.6482 37.4406 36.5898 36.0406C36.5572 35.2695 36.3122 34.5053 36.0007 33.7843C36.0917 33.6536 36.1827 33.5206 36.2748 33.3876C37.858 31.073 39.0865 28.5296 39.0865 28.5296C39.0865 28.5296 39.202 29.309 39.5812 30.5993C39.7725 31.2515 40.1516 31.9643 40.4923 32.662C39.0037 33.8718 38.0808 35.2776 37.76 36.1993C37.1673 37.905 37.6317 38.6773 38.502 38.8535C38.8963 38.9328 39.454 38.752 39.8728 38.5746C40.3943 38.402 41.0208 38.1138 41.6065 37.6833C42.611 36.9448 43.577 35.9111 43.5186 34.5123C43.4918 33.8753 43.3191 33.243 43.0847 32.6363C44.347 32.1101 45.9803 31.8185 48.0616 32.0611C52.5265 32.5826 53.4015 35.3698 53.2346 36.5365C53.0667 37.7031 52.131 38.3448 51.8172 38.5385C51.5045 38.7321 51.4088 38.7998 51.4345 38.9433C51.473 39.1521 51.6176 39.1451 51.8848 39.0996C52.2523 39.0378 54.2286 38.1511 54.3138 35.9975C54.42 33.2605 51.8008 30.2575 47.161 30.282ZM12.7478 41.8833C11.2685 43.4968 9.20349 44.1058 8.31682 43.5925C7.36015 43.0383 7.73932 40.663 9.55349 38.9503C10.6595 37.9073 12.0875 36.946 13.0348 36.3545C13.2507 36.225 13.5668 36.0348 13.9518 35.8038C14.016 35.7676 14.0522 35.7478 14.0522 35.7478L14.051 35.7455C14.1257 35.7011 14.2015 35.6556 14.2797 35.6078C14.9412 38.045 14.3007 40.1905 12.7478 41.8833ZM23.522 34.5601C23.0075 35.8155 21.9295 39.0285 21.2727 38.8558C20.7092 38.7076 20.3662 36.2658 21.1607 33.8625C21.5597 32.6526 22.4137 31.2071 22.9153 30.646C23.7227 29.743 24.6117 29.4478 24.8275 29.8141C25.1017 30.2808 23.8452 33.7726 23.522 34.5601ZM32.4225 38.8068C32.2043 38.9211 32.0037 38.9923 31.9115 38.9375C31.8427 38.8966 32.0013 38.7461 32.0013 38.7461C32.0013 38.7461 33.1143 37.548 33.553 37.0031C33.8085 36.6858 34.1037 36.309 34.4257 35.889C34.428 35.931 34.4292 35.973 34.4292 36.0138C34.4268 37.4488 33.0408 38.4171 32.4225 38.8068ZM39.279 37.2435C39.1157 37.128 39.1437 36.7535 39.6791 35.5856C39.8891 35.1271 40.3698 34.356 41.2028 33.6186C41.2996 33.922 41.358 34.2125 41.3568 34.4831C41.3463 36.2891 40.0583 36.9635 39.279 37.2435Z" fill="black"/>
</svg>
