<svg width="57" height="56" viewBox="0 0 57 56" fill="none" xmlns="http://www.w3.org/2000/svg">
<g clip-path="url(#clip0_196_512)">
<path d="M54.249 0H3.49902C2.04928 0 0.874023 1.17525 0.874023 2.625V53.375C0.874023 54.8247 2.04928 56 3.49902 56H54.249C55.6988 56 56.874 54.8247 56.874 53.375V2.625C56.874 1.17525 55.6988 0 54.249 0Z" fill="black"/>
<path fill-rule="evenodd" clip-rule="evenodd" d="M33.3637 43.5173V49.6536C34.3579 50.1646 35.5336 50.5483 36.8911 50.8038C38.2485 51.0597 39.6792 51.1875 41.1832 51.1875C42.6489 51.1875 44.0414 51.0471 45.3603 50.7658C46.6798 50.4844 47.8361 50.0211 48.8306 49.3754C49.8246 48.7296 50.6116 47.8861 51.1918 46.844C51.7715 45.8023 52.0615 44.5143 52.0615 42.9803C52.0615 41.8681 51.8957 40.8934 51.5645 40.056C51.2329 39.2187 50.7551 38.4741 50.1304 37.8221C49.5061 37.1701 48.7571 36.5852 47.8843 36.0675C47.011 35.5498 46.0266 35.0608 44.9303 34.6006C44.1274 34.2682 43.4072 33.9454 42.77 33.6322C42.1327 33.319 41.591 32.9994 41.1449 32.6734C40.6988 32.3474 40.3547 32.0023 40.1125 31.6379C39.8704 31.2736 39.7493 30.8613 39.7493 30.4011C39.7493 29.9792 39.8576 29.5989 40.0743 29.2601C40.291 28.9214 40.5969 28.6305 40.992 28.3876C41.3871 28.1448 41.8714 27.9562 42.445 27.822C43.0185 27.6877 43.6558 27.6206 44.3568 27.6206C44.8668 27.6206 45.405 27.659 45.9724 27.7357C46.5394 27.8124 47.1099 27.9306 47.6835 28.0904C48.257 28.2502 48.8144 28.4515 49.3565 28.6944C49.8981 28.9373 50.3981 29.2186 50.8571 29.5382V23.8047C49.9265 23.4467 48.9102 23.1815 47.8077 23.0089C46.7052 22.8363 45.4404 22.75 44.0127 22.75C42.5597 22.75 41.1832 22.9066 39.8831 23.2198C38.5831 23.533 37.4391 24.022 36.4513 24.6867C35.4636 25.3515 34.6829 26.1984 34.1094 27.2275C33.5358 28.2566 33.249 29.487 33.249 30.9188C33.249 32.7469 33.7748 34.3065 34.8263 35.5977C35.8778 36.8889 37.4742 37.9819 39.6154 38.8767C40.4567 39.2219 41.2405 39.5607 41.967 39.893C42.6935 40.2254 43.3212 40.5706 43.8502 40.9285C44.3791 41.2865 44.7964 41.6764 45.1022 42.0982C45.4085 42.5201 45.5611 42.9995 45.5611 43.5364C45.5611 43.9329 45.4658 44.3004 45.2746 44.639C45.0834 44.9776 44.7933 45.2716 44.4046 45.521C44.0159 45.7704 43.5315 45.9655 42.9516 46.1059C42.3717 46.2464 41.693 46.3168 40.9155 46.3168C39.5899 46.3168 38.2772 46.0836 36.9771 45.6168C35.6771 45.1504 34.4726 44.4504 33.3637 43.5173ZM23.0564 28.2425H31.0615V23.1875H8.74902V28.2425H16.715V50.75H23.0564V28.2425Z" fill="white"/>
</g>
<defs>
<clipPath id="clip0_196_512">
<rect width="56" height="56" fill="white" transform="translate(0.874023)"/>
</clipPath>
</defs>
</svg>
