<svg width="57" height="56" viewBox="0 0 57 56" fill="none" xmlns="http://www.w3.org/2000/svg">
<g clip-path="url(#clip0_196_516)">
<path d="M56.1877 43.3914C54.1507 43.9094 52.8907 43.4141 51.7602 41.7166L43.7207 30.5936L42.5587 29.0536L33.17 41.7534C32.0972 43.2811 30.972 43.9461 28.97 43.4054L40.9925 27.2669L29.7995 12.6894C31.7245 12.3149 33.0545 12.5056 34.2357 14.2294L42.5745 25.4906L50.9745 14.2906C52.0507 12.7629 53.2075 12.1819 55.1395 12.7454L50.7995 18.4994L44.9195 26.1556C44.2195 27.0306 44.3157 27.6291 44.9597 28.4744L56.1877 43.3914ZM0.201744 26.9974L1.18524 22.1604C3.86274 12.5879 14.8352 8.61011 22.4022 14.5251C26.8245 18.0041 27.9235 22.9251 27.7047 28.4376H2.77774C2.40324 38.3601 9.54499 44.3486 18.6502 41.2931C21.844 40.2204 23.7252 37.7196 24.6667 34.5906C25.1445 33.0226 25.9355 32.7776 27.409 33.2256C26.6565 37.1386 24.959 40.4076 21.3715 42.4534C16.0112 45.5159 8.36024 44.5254 4.33524 40.2694C1.93774 37.8001 0.947244 34.6711 0.502744 31.3251C0.432744 30.7721 0.292744 30.2454 0.187744 29.7151C0.197077 28.8098 0.201744 27.9044 0.201744 26.9991V26.9974ZM2.82324 26.3324H25.3492C25.2022 19.1574 20.7345 14.0614 14.6287 14.0176C7.92624 13.9651 3.11374 18.9404 2.82324 26.3324Z" fill="black"/>
</g>
<defs>
<clipPath id="clip0_196_516">
<rect width="56" height="56" fill="white" transform="translate(0.187744)"/>
</clipPath>
</defs>
</svg>
