<svg width="30" height="30" viewBox="0 0 30 30" fill="none" xmlns="http://www.w3.org/2000/svg">
<circle cx="15" cy="15" r="15" fill="black"/>
<path d="M16.3589 18.8526V17.1899C16.3589 16.9643 16.5961 16.7816 16.8885 16.7816C17.9318 16.7816 18.4994 15.9565 18.5782 14.3277H16.8885C16.5961 14.3277 16.3589 14.1447 16.3589 13.9194V10.4086C16.3589 10.1831 16.5961 10.0003 16.8885 10.0003H21.3935C21.6858 10.0003 21.9231 10.1833 21.9231 10.4086V13.9194C21.9231 14.7001 21.8209 15.4165 21.6202 16.0493C21.4141 16.6979 21.0977 17.265 20.68 17.7349C20.2504 18.2178 19.7125 18.5968 19.0823 18.8607C18.4474 19.1263 17.7092 19.2611 16.8882 19.2611C16.5961 19.2609 16.3589 19.078 16.3589 18.8526ZM9.52943 16.7814C9.23708 16.7814 9 16.9643 9 17.1896V18.8526C9 19.078 9.23708 19.2607 9.52943 19.2607C10.35 19.2607 11.0885 19.1259 11.7231 18.8604C12.3536 18.5965 12.8914 18.2178 13.3209 17.7346C13.7389 17.2647 14.0553 16.6976 14.2614 16.0486C14.4622 15.4159 14.5642 14.6994 14.5642 13.9191V10.4082C14.5642 10.1827 14.3269 10 14.0346 10H9.52943C9.23708 10 9 10.1829 9 10.4082V13.9191C9 14.1446 9.23708 14.3274 9.52943 14.3274H11.1954C11.1176 15.9563 10.5582 16.7814 9.52943 16.7814Z" fill="white"/>
</svg>
